<svg width="24" height="24" viewBox="0 0 24 24"
     fill="none"
     xmlns="http://www.w3.org/2000/svg">

    <path
        fill-rule="evenodd"
        clip-rule="evenodd"
        d="
        M10.7 3.2
        C10.5 3.2 10.3 3.35 10.25 3.55
        L9.85 5.1
        C9.35 5.28 8.88 5.5 8.45 5.8
        L7 4.95
        C6.8 4.83 6.55 4.86 6.38 5.03
        L5.05 6.36
        C4.88 6.53 4.85 6.78 4.97 6.98
        L5.82 8.43
        C5.52 8.86 5.3 9.33 5.12 9.83
        L3.57 10.23
        C3.37 10.28 3.22 10.46 3.22 10.68
        V12.56
        C3.22 12.78 3.37 12.96 3.57 13.01
        L5.12 13.41
        C5.3 13.91 5.52 14.38 5.82 14.81
        L4.97 16.26
        C4.85 16.46 4.88 16.71 5.05 16.88
        L6.38 18.21
        C6.55 18.38 6.8 18.41 7 18.29
        L8.45 17.44
        C8.88 17.74 9.35 17.96 9.85 18.14
        L10.25 19.69
        C10.3 19.89 10.48 20.04 10.7 20.04
        H12.58
        C12.8 20.04 12.98 19.89 13.03 19.69
        L13.43 18.14
        C13.93 17.96 14.4 17.74 14.83 17.44
        L16.28 18.29
        C16.48 18.41 16.73 18.38 16.9 18.21
        L18.23 16.88
        C18.4 16.71 18.43 16.46 18.31 16.26
        L17.46 14.81
        C17.76 14.38 17.98 13.91 18.16 13.41
        L19.71 13.01
        C19.91 12.96 20.06 12.78 20.06 12.56
        V10.68
        C20.06 10.46 19.91 10.28 19.71 10.23
        L18.16 9.83
        C17.98 9.33 17.76 8.86 17.46 8.43
        L18.31 6.98
        C18.43 6.78 18.4 6.53 18.23 6.36
        L16.9 5.03
        C16.73 4.86 16.48 4.83 16.28 4.95
        L14.83 5.8
        C14.4 5.5 13.93 5.28 13.43 5.1
        L13.03 3.55
        C12.98 3.35 12.8 3.2 12.58 3.2
        Z

        M11.64 15.1
        C13.35 15.1 14.74 13.71 14.74 12
        C14.74 10.29 13.35 8.9 11.64 8.9
        C9.93 8.9 8.54 10.29 8.54 12
        C8.54 13.71 9.93 15.1 11.64 15.1
        Z"
        fill="#5d5c61"/>
</svg>